<svg width="622" height="139" viewBox="0 0 622 139" fill="none" xmlns="http://www.w3.org/2000/svg">
<path d="M0 17H63V31H0V17Z" fill="#D18C9F"/>
<path d="M0 35H63V49H0V35Z" fill="#76C0F6"/>
<path d="M0 53H64V123L32.5 102.512L0 123V53Z" fill="#4499A2"/>
<path d="M160.56 35.8H168.72V106.36L117.84 52.984V103H109.68V32.44L160.56 85.816V35.8ZM179.798 80.92C179.798 76.44 180.789 72.472 182.773 69.016C184.822 65.56 187.574 62.84 191.03 60.856C194.486 58.872 198.358 57.88 202.646 57.88C206.998 57.88 210.87 58.872 214.262 60.856C217.718 62.84 220.438 65.56 222.422 69.016C224.47 72.472 225.494 76.44 225.494 80.92C225.494 85.336 224.47 89.304 222.422 92.824C220.438 96.28 217.718 99 214.262 100.984C210.87 102.968 206.998 103.96 202.646 103.96C198.358 103.96 194.486 102.968 191.03 100.984C187.574 99 184.822 96.28 182.773 92.824C180.789 89.304 179.798 85.336 179.798 80.92ZM187.574 80.92C187.574 83.992 188.214 86.712 189.494 89.08C190.838 91.448 192.63 93.336 194.87 94.744C197.174 96.088 199.766 96.76 202.646 96.76C205.526 96.76 208.086 96.088 210.326 94.744C212.63 93.336 214.422 91.448 215.702 89.08C217.046 86.712 217.718 83.992 217.718 80.92C217.718 77.848 217.046 75.128 215.702 72.76C214.422 70.328 212.63 68.44 210.326 67.096C208.086 65.752 205.526 65.08 202.646 65.08C199.766 65.08 197.174 65.752 194.87 67.096C192.63 68.44 190.838 70.328 189.494 72.76C188.214 75.128 187.574 77.848 187.574 80.92ZM229.324 58.84H251.404V66.04H229.324V58.84ZM236.524 43.48H244.204V103H236.524V43.48ZM259.106 40.6C259.106 39.128 259.618 37.88 260.642 36.856C261.73 35.832 262.978 35.32 264.386 35.32C265.858 35.32 267.106 35.832 268.13 36.856C269.154 37.88 269.666 39.128 269.666 40.6C269.666 42.008 269.154 43.256 268.13 44.344C267.106 45.368 265.858 45.88 264.386 45.88C262.978 45.88 261.73 45.368 260.642 44.344C259.618 43.256 259.106 42.008 259.106 40.6ZM260.546 58.84H268.226V103H260.546V58.84ZM305.644 66.04H281.164V58.84H319.564L292.204 95.8H317.644V103H278.284L305.644 66.04ZM343.882 103.96C339.786 103.96 336.138 103 332.938 101.08C329.802 99.096 327.338 96.376 325.546 92.92C323.818 89.464 322.954 85.464 322.954 80.92C322.954 76.312 323.85 72.28 325.642 68.824C327.498 65.368 330.058 62.68 333.322 60.76C336.65 58.84 340.49 57.88 344.842 57.88C349.194 57.88 352.906 58.808 355.978 60.664C359.114 62.456 361.514 65.048 363.178 68.44C364.842 71.832 365.674 75.864 365.674 80.536C365.674 80.984 365.642 81.464 365.578 81.976C365.578 82.424 365.578 82.712 365.578 82.84H327.85V76.312H359.53L356.458 80.728C356.65 80.408 356.842 79.928 357.034 79.288C357.226 78.584 357.322 78.008 357.322 77.56C357.322 74.936 356.778 72.664 355.69 70.744C354.666 68.824 353.226 67.32 351.37 66.232C349.514 65.144 347.338 64.6 344.842 64.6C341.898 64.6 339.37 65.24 337.258 66.52C335.21 67.736 333.61 69.528 332.458 71.896C331.37 74.2 330.794 77.048 330.73 80.44C330.73 83.896 331.274 86.84 332.362 89.272C333.45 91.704 335.05 93.56 337.162 94.84C339.274 96.12 341.834 96.76 344.842 96.76C347.85 96.76 350.506 96.12 352.81 94.84C355.114 93.496 357.066 91.48 358.666 88.792L364.906 92.728C362.602 96.44 359.69 99.256 356.17 101.176C352.714 103.032 348.618 103.96 343.882 103.96ZM404.52 76.12C404.52 72.472 403.72 69.72 402.12 67.864C400.52 66.008 398.184 65.08 395.112 65.08C392.872 65.08 390.888 65.56 389.16 66.52C387.496 67.416 386.184 68.696 385.224 70.36C384.328 72.024 383.88 73.944 383.88 76.12V103H376.2V58.84H383.88V65.752C385.352 63.064 387.176 61.08 389.352 59.8C391.592 58.52 394.152 57.88 397.032 57.88C401.704 57.88 405.384 59.448 408.072 62.584C410.824 65.656 412.2 69.848 412.2 75.16V103H404.52V76.12ZM462.331 82.84L465.211 75.16H494.971L497.851 82.84H462.331ZM479.899 50.968L468.571 77.656L467.803 79.384L457.819 103H448.699L479.899 32.44L511.099 103H501.979L492.187 79.96L491.419 78.04L479.899 50.968ZM525.994 124.12H518.314V58.84H525.994V124.12ZM562.954 80.92C562.954 85.656 561.962 89.752 559.978 93.208C557.994 96.664 555.338 99.32 552.01 101.176C548.746 103.032 545.098 103.96 541.066 103.96C537.418 103.96 534.186 103.032 531.37 101.176C528.618 99.32 526.442 96.664 524.842 93.208C523.306 89.752 522.538 85.656 522.538 80.92C522.538 76.12 523.306 72.024 524.842 68.632C526.442 65.176 528.618 62.52 531.37 60.664C534.186 58.808 537.418 57.88 541.066 57.88C545.098 57.88 548.746 58.808 552.01 60.664C555.338 62.52 557.994 65.176 559.978 68.632C561.962 72.024 562.954 76.12 562.954 80.92ZM555.178 80.92C555.178 77.528 554.474 74.648 553.066 72.28C551.722 69.912 549.898 68.12 547.594 66.904C545.354 65.688 542.858 65.08 540.106 65.08C537.866 65.08 535.658 65.688 533.482 66.904C531.306 68.12 529.514 69.912 528.106 72.28C526.698 74.648 525.994 77.528 525.994 80.92C525.994 84.312 526.698 87.192 528.106 89.56C529.514 91.928 531.306 93.72 533.482 94.936C535.658 96.152 537.866 96.76 540.106 96.76C542.858 96.76 545.354 96.152 547.594 94.936C549.898 93.72 551.722 91.928 553.066 89.56C554.474 87.192 555.178 84.312 555.178 80.92ZM580.744 124.12H573.064V58.84H580.744V124.12ZM617.704 80.92C617.704 85.656 616.712 89.752 614.728 93.208C612.744 96.664 610.088 99.32 606.76 101.176C603.496 103.032 599.848 103.96 595.816 103.96C592.168 103.96 588.936 103.032 586.12 101.176C583.368 99.32 581.192 96.664 579.592 93.208C578.056 89.752 577.288 85.656 577.288 80.92C577.288 76.12 578.056 72.024 579.592 68.632C581.192 65.176 583.368 62.52 586.12 60.664C588.936 58.808 592.168 57.88 595.816 57.88C599.848 57.88 603.496 58.808 606.76 60.664C610.088 62.52 612.744 65.176 614.728 68.632C616.712 72.024 617.704 76.12 617.704 80.92ZM609.928 80.92C609.928 77.528 609.224 74.648 607.816 72.28C606.472 69.912 604.648 68.12 602.344 66.904C600.104 65.688 597.608 65.08 594.856 65.08C592.616 65.08 590.408 65.688 588.232 66.904C586.056 68.12 584.264 69.912 582.856 72.28C581.448 74.648 580.744 77.528 580.744 80.92C580.744 84.312 581.448 87.192 582.856 89.56C584.264 91.928 586.056 93.72 588.232 94.936C590.408 96.152 592.616 96.76 594.856 96.76C597.608 96.76 600.104 96.152 602.344 94.936C604.648 93.72 606.472 91.928 607.816 89.56C609.224 87.192 609.928 84.312 609.928 80.92Z" fill="#4499A2"/>
</svg>
